<?xml version="1.0" encoding="UTF-8" standalone="no"?>
<!-- Created with Inkscape (http://www.inkscape.org/) -->

<svg
   xmlns:dc="http://purl.org/dc/elements/1.1/"
   xmlns:cc="http://creativecommons.org/ns#"
   xmlns:rdf="http://www.w3.org/1999/02/22-rdf-syntax-ns#"
   xmlns:svg="http://www.w3.org/2000/svg"
   xmlns="http://www.w3.org/2000/svg"
   xmlns:xlink="http://www.w3.org/1999/xlink"
   xmlns:sodipodi="http://sodipodi.sourceforge.net/DTD/sodipodi-0.dtd"
   xmlns:inkscape="http://www.inkscape.org/namespaces/inkscape"
   width="480"
   height="272"
   id="svg2"
   version="1.1"
   inkscape:version="0.48.3.1 r9886"
   sodipodi:docname="splash.svg"
   inkscape:export-filename="/home/rob/sr/dev/squidge/splash.png"
   inkscape:export-xdpi="90"
   inkscape:export-ydpi="90">
  <defs
     id="defs4">
    <pattern
       inkscape:collect="always"
       xlink:href="#Strips1_1white"
       id="pattern5898"
       patternTransform="matrix(13.401193,10.766474,-6.8023854,8.4670316,185,1037.3622)" />
    <pattern
       inkscape:stockid="Stripes 1:1 white"
       id="Strips1_1white"
       patternTransform="translate(0,0) scale(10,10)"
       height="1"
       width="2"
       patternUnits="userSpaceOnUse"
       inkscape:collect="always">
      <rect
         id="rect5152"
         height="2"
         width="1"
         y="-0.5"
         x="0"
         style="fill:white;stroke:none" />
    </pattern>
    <pattern
       inkscape:collect="always"
       xlink:href="#Strips1_1"
       id="pattern5878"
       patternTransform="matrix(70.814465,241.40867,-66.628929,19.544832,0,0)" />
    <pattern
       inkscape:stockid="Stripes 1:1"
       id="Strips1_1"
       patternTransform="translate(0,0) scale(10,10)"
       height="1"
       width="2"
       patternUnits="userSpaceOnUse"
       inkscape:collect="always">
      <rect
         id="rect5149"
         height="2"
         width="1"
         y="-0.5"
         x="0"
         style="fill:black;stroke:none" />
    </pattern>
    <filter
       id="filter3791"
       inkscape:label="Glow"
       inkscape:menu="Shadows and Glows"
       inkscape:menu-tooltip="Glow of object's own color at the edges"
       color-interpolation-filters="sRGB"
       y="-0.5"
       height="2"
       x="-2"
       width="5">
      <feGaussianBlur
         id="feGaussianBlur3793"
         stdDeviation="5"
         result="result91" />
      <feComposite
         id="feComposite3795"
         in2="result91"
         in="SourceGraphic"
         operator="over" />
    </filter>
    <filter
       id="filter3791-0"
       inkscape:label="Glow"
       inkscape:menu="Shadows and Glows"
       inkscape:menu-tooltip="Glow of object's own color at the edges"
       color-interpolation-filters="sRGB"
       y="-0.5"
       height="2"
       x="-2"
       width="5">
      <feGaussianBlur
         id="feGaussianBlur3793-5"
         stdDeviation="5"
         result="result91" />
      <feComposite
         id="feComposite3795-9"
         in2="result91"
         in="SourceGraphic"
         operator="over" />
    </filter>
  </defs>
  <sodipodi:namedview
     id="base"
     pagecolor="#000000"
     bordercolor="#666666"
     borderopacity="1.0"
     inkscape:pageopacity="1"
     inkscape:pageshadow="2"
     inkscape:zoom="1.4000714"
     inkscape:cx="239.3343"
     inkscape:cy="117.11598"
     inkscape:document-units="px"
     inkscape:current-layer="layer1"
     showgrid="true"
     inkscape:window-width="1278"
     inkscape:window-height="744"
     inkscape:window-x="0"
     inkscape:window-y="25"
     inkscape:window-maximized="0"
     showguides="true"
     inkscape:guide-bbox="true">
    <sodipodi:guide
       orientation="0,1"
       position="255.06352,375.27167"
       id="guide4259" />
    <sodipodi:guide
       orientation="1,0"
       position="480.71428,177.14286"
       id="guide4084" />
    <sodipodi:guide
       orientation="1,0"
       position="-21.339472,178.41819"
       id="guide3022" />
    <sodipodi:guide
       orientation="1,0"
       position="634.28571,210"
       id="guide4089" />
    <inkscape:grid
       type="xygrid"
       id="grid3884"
       empspacing="5"
       visible="true"
       enabled="true"
       snapvisiblegridlinesonly="true"
       spacingx="5px"
       spacingy="5px" />
  </sodipodi:namedview>
  <metadata
     id="metadata7">
    <rdf:RDF>
      <cc:Work
         rdf:about="">
        <dc:format>image/svg+xml</dc:format>
        <dc:type
           rdf:resource="http://purl.org/dc/dcmitype/StillImage" />
        <dc:title />
      </cc:Work>
    </rdf:RDF>
  </metadata>
  <g
     inkscape:label="Layer 1"
     inkscape:groupmode="layer"
     id="layer1"
     transform="translate(0,-780.36218)">
    <rect
       style="fill:none;stroke:#ffffff;stroke-width:5;stroke-miterlimit:4;stroke-dasharray:none;filter:url(#filter3791)"
       id="rect3002"
       width="480.71429"
       height="247"
       x="0"
       y="780.36218" />
    <text
       xml:space="preserve"
       style="font-size:20px;font-style:normal;font-variant:normal;font-weight:normal;font-stretch:normal;line-height:125%;letter-spacing:0px;word-spacing:0px;fill:#ffffff;fill-opacity:1;stroke:none;font-family:Bitstream Vera Sans;-inkscape-font-specification:Bitstream Vera Sans;filter:url(#filter3791)"
       x="6.377768"
       y="843.2699"
       id="text3004"
       sodipodi:linespacing="125%"
       transform="matrix(0.99998103,-0.00615963,0.00615963,0.99998103,0,0)"><tspan
         sodipodi:role="line"
         id="tspan3006"
         x="6.377768"
         y="843.2699"
         style="font-weight:normal;fill:#2f8ed0;fill-opacity:1;-inkscape-font-specification:Speculum;font-family:Speculum;font-style:normal;font-stretch:normal;font-variant:normal">START</tspan></text>
    <flowRoot
       xml:space="preserve"
       id="flowRoot3784"
       style="fill:black;stroke:none;stroke-opacity:1;stroke-width:1px;stroke-linejoin:miter;stroke-linecap:butt;fill-opacity:1;font-family:Century Schoolbook L;font-style:normal;font-weight:normal;font-size:20px;line-height:125%;letter-spacing:0px;word-spacing:0px;-inkscape-font-specification:Century Schoolbook L;font-stretch:normal;font-variant:normal"><flowRegion
         id="flowRegion3786"><rect
           id="rect3788"
           width="1.0714285"
           height="23.571428"
           x="103.92857"
           y="173.07143" /></flowRegion><flowPara
         id="flowPara3790" /></flowRoot>    <flowRoot
       xml:space="preserve"
       id="flowRoot3786"
       style="fill:black;stroke:none;stroke-opacity:1;stroke-width:1px;stroke-linejoin:miter;stroke-linecap:butt;fill-opacity:1;font-family:Century Schoolbook L;font-style:normal;font-weight:normal;font-size:20px;line-height:125%;letter-spacing:0px;word-spacing:0px;-inkscape-font-specification:Century Schoolbook L;font-stretch:normal;font-variant:normal"><flowRegion
         id="flowRegion3788"><rect
           id="rect3790"
           width="44.446712"
           height="23.233509"
           x="295.72217"
           y="190.93526" /></flowRegion><flowPara
         id="flowPara3792" /></flowRoot>    <flowRoot
       xml:space="preserve"
       id="flowRoot3794"
       style="fill:black;stroke:none;stroke-opacity:1;stroke-width:1px;stroke-linejoin:miter;stroke-linecap:butt;fill-opacity:1;font-family:Century Schoolbook L;font-style:normal;font-weight:normal;font-size:20px;line-height:125%;letter-spacing:0px;word-spacing:0px;-inkscape-font-specification:Century Schoolbook L;font-stretch:normal;font-variant:normal"><flowRegion
         id="flowRegion3796"><rect
           id="rect3798"
           width="55.053314"
           height="23.738585"
           x="295.21707"
           y="190.93526" /></flowRegion><flowPara
         id="flowPara3800" /></flowRoot>    <flowRoot
       xml:space="preserve"
       id="flowRoot3814"
       style="font-size:20px;font-style:normal;font-variant:normal;font-weight:normal;font-stretch:normal;line-height:125%;letter-spacing:0px;word-spacing:0px;fill:#ffffff;fill-opacity:1;stroke:none;font-family:Century Schoolbook L;-inkscape-font-specification:Century Schoolbook L"
       transform="translate(0,780.36218)"><flowRegion
         id="flowRegion3816"><rect
           id="rect3818"
           width="288.90363"
           height="51.51778"
           x="103.54063"
           y="141.18524"
           style="fill:#ffffff;fill-opacity:1" /></flowRegion><flowPara
         id="flowPara3820" /></flowRoot>    <flowRoot
       xml:space="preserve"
       id="flowRoot3828"
       style="font-size:20px;font-style:normal;font-variant:normal;font-weight:normal;font-stretch:normal;line-height:125%;letter-spacing:0px;word-spacing:0px;fill:#000000;fill-opacity:1;stroke:none;font-family:Century Schoolbook L;-inkscape-font-specification:Century Schoolbook L"
       transform="translate(0,780.36218)"><flowRegion
         id="flowRegion3830"><rect
           id="rect3832"
           width="45.709404"
           height="46.467018"
           x="38.385796"
           y="165.42891" /></flowRegion><flowPara
         id="flowPara3834">sdfsd</flowPara></flowRoot>    <g
       id="g3857"
       transform="translate(-10,0)">
      <g
         id="g3787"
         transform="matrix(1.30854,0,0,1.30854,402.36385,789.52029)">
        <path
           style="fill:#2f8ed0;fill-opacity:1;fill-rule:nonzero;stroke:none;filter:url(#filter3791)"
           d="M 427.25 13.21875 A 29.988904 29.988904 0 0 0 396.40625 43.1875 A 29.988904 29.988904 0 0 0 456.375 43.1875 A 29.988904 29.988904 0 0 0 427.25 13.21875 z M 426.1875 26.03125 C 426.26 26.027586 426.31606 26.022352 426.46875 26.03125 C 426.54509 26.035686 426.62276 26.072709 426.75 26.09375 C 426.83792 26.108288 426.99955 26.119768 427.125 26.15625 C 427.1398 26.160359 427.16989 26.205599 427.21875 26.21875 C 427.23365 26.223199 427.28114 26.218708 427.28125 26.21875 C 427.37632 26.244253 427.5005 26.239442 427.65625 26.28125 C 428.03429 26.382722 428.58008 26.563427 429.25 26.75 C 430.58985 27.123147 432.44564 27.678317 434.5625 28.34375 C 438.79622 29.674618 444.05577 31.481006 448.46875 33.6875 A 2.7783081 2.7783081 0 0 1 448.625 38.5625 C 444.46596 41.003669 441.08833 42.797685 437.6875 44.40625 C 439.47825 45.226597 441.18894 46.136277 442.6875 47.03125 C 446.19706 49.127235 448.71875 51.125 448.71875 51.125 A 2.7813239 2.7813239 0 1 1 445.28125 55.5 C 445.28125 55.5 443.03354 53.71751 439.84375 51.8125 C 436.65396 49.90749 432.50629 47.953909 429.375 47.5625 A 2.7783081 2.7783081 0 0 1 428.8125 42.1875 C 433.15186 40.604905 436.69161 38.805959 440.65625 36.625 C 437.97603 35.572202 435.30226 34.388007 432.875 33.625 C 430.83235 32.982894 429.04601 32.454687 427.75 32.09375 C 427.102 31.913281 426.58783 31.78657 426.21875 31.6875 C 425.89203 31.768946 425.46939 31.906882 424.90625 32.0625 C 423.64031 32.412329 421.86834 32.910943 419.84375 33.5625 C 417.41865 34.342953 414.72384 35.547269 412.03125 36.625 C 416.10228 38.904464 419.77262 40.814343 423.90625 42.125 A 2.7783081 2.7783081 0 0 1 423.53125 47.46875 C 416.03723 48.760832 407.375 55.5 407.375 55.5 A 2.7783081 2.7783081 0 1 1 403.90625 51.15625 C 403.90625 51.15625 408.63378 47.234961 414.96875 44.4375 C 411.58914 42.830371 408.22098 40.979573 404.15625 38.59375 A 2.7783081 2.7783081 0 0 1 404.3125 33.6875 C 408.70788 31.489814 413.9187 29.603679 418.125 28.25 C 420.22815 27.57316 422.09141 27.059476 423.4375 26.6875 C 424.11054 26.501512 424.61937 26.350535 425.03125 26.25 C 425.23719 26.199726 425.42849 26.158577 425.59375 26.125 C 425.67638 26.108211 425.77872 26.111729 425.90625 26.09375 C 425.97002 26.08476 426.04251 26.038709 426.1875 26.03125 z "
           transform="matrix(0.76421049,0,0,0.76421049,-299.84857,-6.9987238)"
           id="path3205" />
      </g>
      <text
         sodipodi:linespacing="125%"
         id="text3046"
         y="876.185"
         x="394.3204"
         style="font-size:23.36211013999999864px;font-style:normal;font-variant:normal;font-weight:500;font-stretch:normal;line-height:125%;letter-spacing:0px;word-spacing:0px;fill:#ffffff;fill-opacity:1;stroke:none;font-family:CMU Sans Serif;-inkscape-font-specification:CMU Sans Serif Medium;filter:url(#filter3791)"
         xml:space="preserve"><tspan
           style="font-style:normal;font-variant:normal;font-weight:normal;font-stretch:normal;fill:#2f8ed0;fill-opacity:1;font-family:Speculum;-inkscape-font-specification:Speculum"
           y="876.185"
           x="394.3204"
           id="tspan3048"
           sodipodi:role="line">2013</tspan></text>
    </g>
    <text
       xml:space="preserve"
       style="font-size:17.02639771px;font-style:italic;font-variant:normal;font-weight:normal;font-stretch:normal;text-align:start;line-height:125%;letter-spacing:0px;word-spacing:0px;text-anchor:start;fill:#2f8ed0;fill-opacity:1;stroke:none;filter:url(#filter3791);font-family:Century Schoolbook L;-inkscape-font-specification:Century Schoolbook L Italic"
       x="24.25906"
       y="1012.3617"
       id="text3818"
       sodipodi:linespacing="125%"><tspan
         sodipodi:role="line"
         x="24.25906"
         y="1012.3617"
         style="font-size:38.91748047px;font-style:normal;font-variant:normal;font-weight:normal;font-stretch:normal;text-align:start;line-height:125%;letter-spacing:-3px;word-spacing:-10px;writing-mode:lr-tb;text-anchor:start;fill:#2f8ed0;fill-opacity:1;font-family:Speculum;-inkscape-font-specification:Speculum"
         id="tspan3834">A STRANGE GAME</tspan></text>
    <g
       id="g4424"
       transform="translate(0,-10)">
      <path
         id="path3882"
         d="m 207.5,807.36218 0,57.5 -57.5,0 0,5 57.5,0 0,55 -57.5,0 0,5 57.5,0 0,57.50002 5,0 0,-57.50002 55,0 0,57.50002 5,0 0,-57.50002 57.5,0 0,-5 -57.5,0 0,-55 57.5,0 0,-5 -57.5,0 0,-57.5 -5,0 0,57.5 -55,0 0,-57.5 -5,0 z m 5,62.5 55,0 0,55 -55,0 0,-55 z"
         style="font-size:medium;font-style:normal;font-variant:normal;font-weight:normal;font-stretch:normal;text-indent:0;text-align:start;text-decoration:none;line-height:normal;letter-spacing:normal;word-spacing:normal;text-transform:none;direction:ltr;block-progression:tb;writing-mode:lr-tb;text-anchor:start;baseline-shift:baseline;color:#000000;fill:#2f8ed0;fill-opacity:1;stroke:none;stroke-width:5;marker:none;visibility:visible;display:inline;overflow:visible;filter:url(#filter3791-0);enable-background:accumulate;font-family:Sans;-inkscape-font-specification:Sans"
         inkscape:connector-curvature="0" />
      <path
         id="path3940"
         transform="translate(0,780.36218)"
         d="m 227.84375,99.15625 -5.6875,5.65625 12.15625,12.1875 -12.15625,12.15625 5.6875,5.6875 L 240,122.6875 l 12.15625,12.125 5.6875,-5.65625 L 245.6875,117 257.84375,104.84375 252.15625,99.15625 240,111.3125 227.84375,99.15625 z"
         style="font-size:medium;font-style:normal;font-variant:normal;font-weight:normal;font-stretch:normal;text-indent:0;text-align:start;text-decoration:none;line-height:normal;letter-spacing:normal;word-spacing:normal;text-transform:none;direction:ltr;block-progression:tb;writing-mode:lr-tb;text-anchor:start;baseline-shift:baseline;color:#000000;fill:#2f8ed0;fill-opacity:1;stroke:none;stroke-width:8;marker:none;visibility:visible;display:inline;overflow:visible;filter:url(#filter3791-0);enable-background:accumulate;font-family:Sans;-inkscape-font-specification:Sans"
         inkscape:connector-curvature="0" />
    </g>
    <path
       style="font-size:medium;font-style:normal;font-variant:normal;font-weight:normal;font-stretch:normal;text-indent:0;text-align:start;text-decoration:none;line-height:normal;letter-spacing:normal;word-spacing:normal;text-transform:none;direction:ltr;block-progression:tb;writing-mode:lr-tb;text-anchor:start;baseline-shift:baseline;color:#000000;fill:#2f8ed0;fill-opacity:1;stroke:none;stroke-width:2;marker:none;visibility:visible;display:inline;overflow:visible;enable-background:accumulate;font-family:Sans;-inkscape-font-specification:Sans;filter:url(#filter3791-0)"
       d="M 59.90625 65.96875 A 1.0001 1.0001 0 0 0 59.78125 66 A 1.0001 1.0001 0 0 0 59 67 L 59 96 L 12.4375 96 L 20.71875 87.71875 A 1.0001 1.0001 0 0 0 19.875 86 A 1.0001 1.0001 0 0 0 19.28125 86.28125 L 9.4375 96.15625 A 1.0001 1.0001 0 0 0 9.15625 96.4375 L 8.59375 97 L 9.15625 97.5625 L 9.28125 97.71875 A 1.0001 1.0001 0 0 0 9.375 97.78125 L 19.28125 107.71875 A 1.016466 1.016466 0 1 0 20.71875 106.28125 L 12.4375 98 L 60 98 L 61 98 L 61 97 L 61 67 A 1.0001 1.0001 0 0 0 59.90625 65.96875 z "
       transform="translate(0,780.36218)"
       id="path3953" />
    <rect
       style="fill:#1a1a1a;fill-opacity:1;stroke:none"
       id="rect5900"
       width="480.71429"
       height="25"
       x="0"
       y="247"
       transform="translate(0,780.36218)" />
    <rect
       style="opacity:0.15;fill:url(#pattern5898);fill-opacity:1;stroke:none"
       id="rect5880"
       width="480"
       height="25.000002"
       x="0"
       y="1027.3622" />
  </g>
</svg>
