<?xml version="1.0" encoding="UTF-8" standalone="no"?>
<!-- Created with Inkscape (http://www.inkscape.org/) -->

<svg
   xmlns:dc="http://purl.org/dc/elements/1.1/"
   xmlns:cc="http://creativecommons.org/ns#"
   xmlns:rdf="http://www.w3.org/1999/02/22-rdf-syntax-ns#"
   xmlns:svg="http://www.w3.org/2000/svg"
   xmlns="http://www.w3.org/2000/svg"
   xmlns:sodipodi="http://sodipodi.sourceforge.net/DTD/sodipodi-0.dtd"
   xmlns:inkscape="http://www.inkscape.org/namespaces/inkscape"
   width="480"
   height="272"
   id="svg2"
   version="1.1"
   inkscape:version="0.48.1 r9760"
   sodipodi:docname="splash.svg"
   inkscape:export-filename="/home/rob/sr/dev/squidge/splash.png"
   inkscape:export-xdpi="90"
   inkscape:export-ydpi="90">
  <defs
     id="defs4" />
  <sodipodi:namedview
     id="base"
     pagecolor="#000000"
     bordercolor="#666666"
     borderopacity="1.0"
     inkscape:pageopacity="0"
     inkscape:pageshadow="2"
     inkscape:zoom="1.4"
     inkscape:cx="230.26347"
     inkscape:cy="125.71764"
     inkscape:document-units="px"
     inkscape:current-layer="layer1"
     showgrid="false"
     inkscape:window-width="1552"
     inkscape:window-height="964"
     inkscape:window-x="1339"
     inkscape:window-y="78"
     inkscape:window-maximized="0"
     showguides="false"
     inkscape:guide-bbox="true">
    <sodipodi:guide
       orientation="0,1"
       position="255.06352,375.27167"
       id="guide4259" />
    <sodipodi:guide
       orientation="1,0"
       position="480.71428,177.14286"
       id="guide4084" />
    <sodipodi:guide
       orientation="0,1"
       position="-166.42857,-0.71428571"
       id="guide4086" />
    <sodipodi:guide
       orientation="1,0"
       position="-21.339472,178.41819"
       id="guide3022" />
    <sodipodi:guide
       orientation="0,1"
       position="747.0078,119.70308"
       id="guide4085" />
    <sodipodi:guide
       orientation="0,1"
       position="766.70578,163.64471"
       id="guide4087" />
    <sodipodi:guide
       orientation="1,0"
       position="629.83011,204.55589"
       id="guide4089" />
  </sodipodi:namedview>
  <metadata
     id="metadata7">
    <rdf:RDF>
      <cc:Work
         rdf:about="">
        <dc:format>image/svg+xml</dc:format>
        <dc:type
           rdf:resource="http://purl.org/dc/dcmitype/StillImage" />
        <dc:title />
      </cc:Work>
    </rdf:RDF>
  </metadata>
  <g
     inkscape:label="Layer 1"
     inkscape:groupmode="layer"
     id="layer1"
     transform="translate(0,-780.36218)">
    <rect
       style="fill:#000000;fill-opacity:1;stroke:none"
       id="rect3002"
       width="480"
       height="272"
       x="0"
       y="780.36218" />
    <text
       xml:space="preserve"
       style="font-size:20px;font-style:normal;font-variant:normal;font-weight:normal;font-stretch:normal;line-height:125%;letter-spacing:0px;word-spacing:0px;fill:#ffffff;fill-opacity:1;stroke:none;font-family:Bitstream Vera Sans;-inkscape-font-specification:Bitstream Vera Sans"
       x="6.377768"
       y="843.2699"
       id="text3004"
       sodipodi:linespacing="125%"
       transform="matrix(0.99998103,-0.00615963,0.00615963,0.99998103,0,0)"><tspan
         sodipodi:role="line"
         id="tspan3006"
         x="6.377768"
         y="843.2699"
         style="font-weight:bold;fill:#ffffff;fill-opacity:1;-inkscape-font-specification:Bitstream Vera Sans Bold">START</tspan></text>
    <flowRoot
       xml:space="preserve"
       id="flowRoot3784"
       style="fill:black;stroke:none;stroke-opacity:1;stroke-width:1px;stroke-linejoin:miter;stroke-linecap:butt;fill-opacity:1;font-family:Century Schoolbook L;font-style:normal;font-weight:normal;font-size:20px;line-height:125%;letter-spacing:0px;word-spacing:0px;-inkscape-font-specification:Century Schoolbook L;font-stretch:normal;font-variant:normal"><flowRegion
         id="flowRegion3786"><rect
           id="rect3788"
           width="1.0714285"
           height="23.571428"
           x="103.92857"
           y="173.07143" /></flowRegion><flowPara
         id="flowPara3790" /></flowRoot>    <path
       style="fill:none;stroke:#ffffff;stroke-width:1.89999998;stroke-linecap:butt;stroke-linejoin:miter;stroke-miterlimit:4;stroke-opacity:1;stroke-dasharray:none"
       d="m 13.922227,86.508929 c 0,0 -4.4228673,4.747772 -11.2946437,7.991071 6.6550098,1.680799 12.0982147,5.89286 12.0982147,5.89286 M 47.938465,66.232831 c 0.396892,10.449907 -7.935233,29.157846 -43.8823103,28.13324"
       id="path4253"
       inkscape:connector-curvature="0"
       transform="translate(0,780.36218)"
       sodipodi:nodetypes="csccc" />
    <flowRoot
       xml:space="preserve"
       id="flowRoot3786"
       style="fill:black;stroke:none;stroke-opacity:1;stroke-width:1px;stroke-linejoin:miter;stroke-linecap:butt;fill-opacity:1;font-family:Century Schoolbook L;font-style:normal;font-weight:normal;font-size:20px;line-height:125%;letter-spacing:0px;word-spacing:0px;-inkscape-font-specification:Century Schoolbook L;font-stretch:normal;font-variant:normal"><flowRegion
         id="flowRegion3788"><rect
           id="rect3790"
           width="44.446712"
           height="23.233509"
           x="295.72217"
           y="190.93526" /></flowRegion><flowPara
         id="flowPara3792" /></flowRoot>    <flowRoot
       xml:space="preserve"
       id="flowRoot3794"
       style="fill:black;stroke:none;stroke-opacity:1;stroke-width:1px;stroke-linejoin:miter;stroke-linecap:butt;fill-opacity:1;font-family:Century Schoolbook L;font-style:normal;font-weight:normal;font-size:20px;line-height:125%;letter-spacing:0px;word-spacing:0px;-inkscape-font-specification:Century Schoolbook L;font-stretch:normal;font-variant:normal"><flowRegion
         id="flowRegion3796"><rect
           id="rect3798"
           width="55.053314"
           height="23.738585"
           x="295.21707"
           y="190.93526" /></flowRegion><flowPara
         id="flowPara3800" /></flowRoot>    <flowRoot
       xml:space="preserve"
       id="flowRoot3814"
       style="font-size:20px;font-style:normal;font-variant:normal;font-weight:normal;font-stretch:normal;line-height:125%;letter-spacing:0px;word-spacing:0px;fill:#ffffff;fill-opacity:1;stroke:none;font-family:Century Schoolbook L;-inkscape-font-specification:Century Schoolbook L"
       transform="translate(0,780.36218)"><flowRegion
         id="flowRegion3816"><rect
           id="rect3818"
           width="288.90363"
           height="51.51778"
           x="103.54063"
           y="141.18524"
           style="fill:#ffffff;fill-opacity:1" /></flowRegion><flowPara
         id="flowPara3820" /></flowRoot>    <flowRoot
       xml:space="preserve"
       id="flowRoot3828"
       style="font-size:20px;font-style:normal;font-variant:normal;font-weight:normal;font-stretch:normal;line-height:125%;letter-spacing:0px;word-spacing:0px;fill:#000000;fill-opacity:1;stroke:none;font-family:Century Schoolbook L;-inkscape-font-specification:Century Schoolbook L"
       transform="translate(0,780.36218)"><flowRegion
         id="flowRegion3830"><rect
           id="rect3832"
           width="45.709404"
           height="46.467018"
           x="38.385796"
           y="165.42891" /></flowRegion><flowPara
         id="flowPara3834">sdfsd</flowPara></flowRoot>    <g
       transform="matrix(1.30854,0,0,1.30854,402.36385,789.52029)"
       id="g3787">
      <path
         d="M 48.91784,26 A 22.917835,22.917835 0 0 1 3.08217,26 22.917835,22.917835 0 1 1 48.91784,26 z"
         id="path3205"
         style="fill:#0d1f61;fill-opacity:1;fill-rule:nonzero;stroke:none"
         inkscape:connector-curvature="0" />
      <path
         d="m 10.12891,33.74053 c 0,0 6.71251,-5.40413 13.31124,-6.54185 -4.66462,-1.47902 -8.13464,-3.47002 -13.36812,-6.54185 6.37119,-3.18559 15.72744,-5.68195 15.87942,-5.62504 0.15197,0.0569 9.60534,2.43259 15.97653,5.61819 -5.23348,3.07182 -8.53284,4.83527 -13.36812,6.59873 5.9161,0.73951 13.19747,6.48496 13.19747,6.48496"
         id="path3255"
         style="fill:none;stroke:#ffffff;stroke-width:4.24599981;stroke-linecap:round;stroke-linejoin:round;stroke-miterlimit:4;stroke-opacity:1;stroke-dasharray:none"
         inkscape:connector-curvature="0" />
    </g>
    <text
       xml:space="preserve"
       style="font-size:23.36211014px;font-style:normal;font-variant:normal;font-weight:500;font-stretch:normal;line-height:125%;letter-spacing:0px;word-spacing:0px;fill:#ffffff;fill-opacity:1;stroke:none;font-family:CMU Sans Serif;-inkscape-font-specification:CMU Sans Serif Medium"
       x="107.47592"
       y="1028.3279"
       id="text3046"
       sodipodi:linespacing="125%"><tspan
         sodipodi:role="line"
         id="tspan3048"
         x="107.47592"
         y="1028.3279"
         style="font-style:normal;font-variant:normal;font-weight:normal;font-stretch:normal;fill:#ffffff;fill-opacity:1;font-family:Eurostile;-inkscape-font-specification:Eurostile">STUDENT ROBOTICS 2012</tspan></text>
    <text
       xml:space="preserve"
       style="font-size:17.02639771px;font-style:italic;font-variant:normal;font-weight:normal;font-stretch:normal;text-align:start;line-height:125%;letter-spacing:0px;word-spacing:0px;text-anchor:start;fill:#ffffff;fill-opacity:1;stroke:none;font-family:Century Schoolbook L;-inkscape-font-specification:Century Schoolbook L Italic"
       x="196.95233"
       y="905.94873"
       id="text3818"
       sodipodi:linespacing="125%"><tspan
         sodipodi:role="line"
         x="196.95233"
         y="905.94873"
         style="font-size:38.91748047px;font-style:normal;font-variant:normal;font-weight:bold;font-stretch:normal;text-align:start;text-anchor:start;fill:#ffffff;fill-opacity:1;font-family:Century Schoolbook L;-inkscape-font-specification:Century Schoolbook L Bold"
         id="tspan3826">PIRATE</tspan><tspan
         sodipodi:role="line"
         x="196.95233"
         y="954.59558"
         style="font-size:38.91748047px;font-style:normal;font-variant:normal;font-weight:bold;font-stretch:normal;text-align:start;text-anchor:start;fill:#ffffff;fill-opacity:1;font-family:Century Schoolbook L;-inkscape-font-specification:Century Schoolbook L Bold"
         id="tspan3834">PLUNDER</tspan></text>
    <g
       id="g3073"
       transform="matrix(0.40796921,0,0,0.40796921,31.662964,919.82992)"
       style="fill:#ffffff;fill-opacity:1">
      <title
         id="title3075">Layer 1</title>
      <path
         d="M 176.36269,-145 0,27.757813 0,29.890626 70.165802,76.812501 60.683937,85.343751 102.40414,128 l 242.73575,0 0,-21.32812 1.89636,-6.39844 11.37824,-6.39844 5.68912,-14.929688 -1.89637,-27.726563 0,-10.664063 L 366,27.757811 290.14508,-81.015627 l 5.68912,-21.328123 0,-2.13281 -18.96375,4.26562 -24.65283,-36.25781 -3.79275,-2.13282 -68.26943,-6.39843 -3.79275,0 z m 0,2.13281 0,42.65625 -41.7202,10.664066 0,2.132813 c -7.5855,21.328125 -7.5855,46.921875 3.79274,68.25 l 0,4.265625 c -7.58548,19.195313 -3.79274,40.523438 5.68911,57.585938 l -3.79274,0 -7.58549,8.53125 c -34.134714,-59.71875 -32.23834,-117.304688 -1.89636,-149.296875 28.44558,-29.859377 45.51293,-44.789067 45.51293,-44.789067 z m 3.79275,0 68.26942,6.39844 0,42.656251 -36.03108,10.664063 0,2.132813 1.89637,0 -5.68912,29.859375 c -9.48186,-14.929688 -1.89636,-38.390625 5.68912,-53.320312 l 0,-2.13281 -33.18653,5.33203 -0.94818,-41.58985 z m 72.06218,8.53125 22.75647,34.125 -21.80829,5.332034 -0.94818,-39.457034 z m -45.51295,31.99219 -25.60105,10.664064 0,-5.332031 25.60105,-5.332033 z m 85.33677,1.06641 -11.37823,5.332028 -1.89636,-2.132813 13.27459,-3.199215 z m -15.17099,4.265622 1.8964,2.132813 -25.60105,9.597656 0,-5.332031 23.70465,-6.398438 z m -100.50776,1.066406 0,4.265625 c -9.48186,4.265625 -20.8601,6.398438 -30.34197,2.132813 l 30.34197,-6.398438 z m 72.06218,6.398438 0,4.265625 -24.65285,2.132813 24.65285,-6.398438 z m 41.72021,10.664063 73.95853,106.640625 -45.51294,8.53125 -13.2746,10.664063 c -7.58551,-21.328125 -3.79275,-46.921875 1.89636,-68.25 l 1.89637,0 0,-4.265625 -1.89637,0 c -13.27462,-14.929688 -20.8601,-31.992188 -17.06735,-53.320313 z m -83.44041,46.921875 -22.75649,4.265625 0,-2.132813 22.75649,-2.132813 z m -28.44561,2.132813 0,3.199219 -34.13472,7.464844 c 9.72898,-8.904922 24.51595,-9.845699 34.13473,-10.664063 z m 32.23835,1.066406 -26.54923,9.597656 0,-4.265625 26.54923,-5.332031 z m -32.23834,6.398438 0,5.332031 c -9.48186,2.132813 -20.86011,2.132813 -30.34197,0 l 30.34197,-5.332031 z m 121.36788,-1.066406 -41.72021,6.398438 0,-4.265625 c 13.2746,-3.199219 27.49741,-2.132813 41.72021,-2.132813 z m 3.79273,2.132813 c -14.22278,8.53125 -29.39377,13.863281 -45.51294,14.929688 l 0,-6.398438 45.51294,-8.53125 z m -53.09843,2.132813 0,3.199219 -18.96373,5.332031 18.96373,-8.53125 z m -34.13472,6.398438 3.79275,6.398438 -5.68913,17.0625 c 0,0 -1.89637,-14.929688 1.89638,-23.460938 z m 34.13472,1.066406 0,5.332031 -24.65285,0 24.65285,-5.332031 z M 130.84975,51.218754 C 115.67876,72.546879 97.663209,78.945317 75.854921,68.281254 L 3.792748,27.757816 c 0,0 5.689119,-8.53125 13.274612,-12.796875 41.720205,-26.660156 81.544039,12.796875 113.78239,36.257813 z m 49.30569,-12.796875 0,4.265625 -24.65284,2.132813 c 7.58548,-3.199219 16.11917,-5.332031 24.65284,-6.398438 z m 5.68912,0 26.54923,2.132813 -26.54923,2.132813 0,-4.265625 z m 26.54923,4.265625 c 0.94818,9.597656 6.29216,23.075745 7.58549,25.59375 l 0,4.265625 34.13471,-2.132813 0,25.59375 C 227.56476,100.27344 216.18653,85.343753 206.70467,59.750003 l -11.37825,-2.132813 -1.89636,-8.53125 -7.5855,0 0,-4.265625 26.54923,-2.132813 z m -32.23835,2.132813 0,2.132813 -12.32643,-1.066406 12.32643,-1.066406 z m 73.95855,14.929688 0,6.398438 -24.65285,2.132813 24.65285,-8.53125 z m 5.68911,0 32.23834,2.132813 -32.23834,4.265625 0,-6.398438 z m 32.23834,6.398438 c 0,23.460938 -13.27459,30.925781 -32.23834,29.859375 l 0,-25.59375 32.23834,-4.265625 z"
         id="path12357"
         inkscape:connector-curvature="0"
         style="fill:#ffffff;fill-opacity:1" />
    </g>
  </g>
</svg>
